# xmcd CD database file
#
# Track frame offsets:
#	150
#	17865
#	34095
#	56092
#	71857
#	87400
#	106575
#	124067
#	139905
#	156875
#	175237
#	194035
#	221705
#	239050
#	256120
#	274252
#	290945
#	309217
#
# Disc length: 4417 seconds
#
# Revision: 0
# Processed by: cddbd v1.5.1PL0 Copyright (c) Steve Scherf et al.
# Submitted via: CDex 1.51
#
DISCID=1b113f12
DTITLE=Rebecca Kilgore - A Rememberance of Maxine Sullivan "Harlem Butterfly"
DYEAR=2001
DGENRE=Jazz
TTITLE0=Harlem Butterfly
TTITLE1=How'DJa Like To Love Me
TTITLE2=I'm Gonna Sit Right Down And Write Myself A Letter
TTITLE3=Don't Save Your Love
TTITLE4=Leepin' Out Of Misschief Now
TTITLE5=Someday Sweetheart
TTITLE6=That's What I Hate About Love
TTITLE7=When A Woman Loves A Man
TTITLE8=Enjoy Yourself
TTITLE9=Harlem Butterfly (Take 1)
TTITLE10=A Hundred Years From Today
TTITLE11=Get Out And Get Under The Moon
TTITLE12=The Lady's In Love With You
TTITLE13=Legalize My Name
TTITLE14=Massachusetts
TTITLE15=We Just Couldn't Say Goodbye
TTITLE16=As Long As I Live
TTITLE17=Wrap Your Troubles In Dreams
EXTD=YEAR: 2001
EXTT0=
EXTT1=
EXTT2=
EXTT3=
EXTT4=
EXTT5=
EXTT6=
EXTT7=
EXTT8=
EXTT9=
EXTT10=
EXTT11=
EXTT12=
EXTT13=
EXTT14=
EXTT15=
EXTT16=
EXTT17=
PLAYORDER=
